<mxfile host="app.diagrams.net" modified="2024-01-05T12:06:23.043Z" agent="Mozilla/5.0 (Windows NT 10.0; Win64; x64) AppleWebKit/537.36 (KHTML, like Gecko) Chrome/120.0.0.0 Safari/537.36" etag="Ci1cSYpgpVYIZrB9ndFe" version="21.5.0" type="device">
  <diagram name="ページ1" id="5wYgeP-ieI4a_z9Kwn8f">
    <mxGraphModel dx="1434" dy="746" grid="1" gridSize="10" guides="1" tooltips="1" connect="1" arrows="1" fold="1" page="1" pageScale="1" pageWidth="1400" pageHeight="2500" math="0" shadow="0">
      <root>
        <mxCell id="0" />
        <mxCell id="1" parent="0" />
        <mxCell id="_YsvBeuveRF8L4bBLbOp-19" value="" style="rounded=0;whiteSpace=wrap;html=1;fillColor=none;strokeColor=#006600;" parent="1" vertex="1">
          <mxGeometry x="320" y="240" width="960" height="340" as="geometry" />
        </mxCell>
        <mxCell id="_YsvBeuveRF8L4bBLbOp-17" style="edgeStyle=orthogonalEdgeStyle;rounded=0;orthogonalLoop=1;jettySize=auto;html=1;entryX=0.443;entryY=0.13;entryDx=0;entryDy=0;entryPerimeter=0;startArrow=classic;startFill=1;endArrow=none;endFill=0;" parent="1" edge="1">
          <mxGeometry relative="1" as="geometry">
            <mxPoint x="819.64" y="360" as="sourcePoint" />
            <mxPoint x="729.64" y="433" as="targetPoint" />
            <Array as="points">
              <mxPoint x="819.64" y="440" />
              <mxPoint x="729.64" y="440" />
            </Array>
          </mxGeometry>
        </mxCell>
        <mxCell id="_YsvBeuveRF8L4bBLbOp-15" style="edgeStyle=orthogonalEdgeStyle;rounded=0;orthogonalLoop=1;jettySize=auto;html=1;entryX=0.167;entryY=0.107;entryDx=0;entryDy=0;entryPerimeter=0;startArrow=classic;startFill=1;endArrow=none;endFill=0;" parent="1" source="_YsvBeuveRF8L4bBLbOp-1" target="_YsvBeuveRF8L4bBLbOp-8" edge="1">
          <mxGeometry relative="1" as="geometry">
            <Array as="points">
              <mxPoint x="480" y="440" />
              <mxPoint x="453" y="440" />
              <mxPoint x="453" y="432" />
            </Array>
          </mxGeometry>
        </mxCell>
        <mxCell id="_YsvBeuveRF8L4bBLbOp-1" value="GitLab&lt;br&gt;・ソースコードリポジトリ:8929&lt;br&gt;・コンテナレジストリ:5050&lt;br&gt;・インスタンスランナー" style="rounded=0;whiteSpace=wrap;html=1;align=left;verticalAlign=top;fillColor=#ffe6cc;strokeColor=#d79b00;" parent="1" vertex="1">
          <mxGeometry x="360" y="280" width="240" height="80" as="geometry" />
        </mxCell>
        <mxCell id="_YsvBeuveRF8L4bBLbOp-14" style="edgeStyle=orthogonalEdgeStyle;rounded=0;orthogonalLoop=1;jettySize=auto;html=1;entryX=0.443;entryY=0.13;entryDx=0;entryDy=0;entryPerimeter=0;startArrow=classic;startFill=1;endArrow=none;endFill=0;" parent="1" source="_YsvBeuveRF8L4bBLbOp-2" target="_YsvBeuveRF8L4bBLbOp-8" edge="1">
          <mxGeometry relative="1" as="geometry">
            <Array as="points">
              <mxPoint x="680" y="440" />
              <mxPoint x="590" y="440" />
            </Array>
          </mxGeometry>
        </mxCell>
        <mxCell id="_YsvBeuveRF8L4bBLbOp-2" value="SonarQube&lt;br&gt;・静的解析&lt;br&gt;" style="rounded=0;whiteSpace=wrap;html=1;align=left;verticalAlign=top;fillColor=#E3F2FF;strokeColor=#66B2FF;" parent="1" vertex="1">
          <mxGeometry x="620" y="280" width="120" height="80" as="geometry" />
        </mxCell>
        <mxCell id="_YsvBeuveRF8L4bBLbOp-3" value="Portainer&lt;br&gt;・コンテナ操作" style="rounded=0;whiteSpace=wrap;html=1;align=left;verticalAlign=top;fillColor=#dae8fc;strokeColor=#6c8ebf;" parent="1" vertex="1">
          <mxGeometry x="760" y="280" width="120" height="80" as="geometry" />
        </mxCell>
        <mxCell id="_YsvBeuveRF8L4bBLbOp-4" value="Rocky Linux 9" style="rounded=0;whiteSpace=wrap;html=1;align=left;verticalAlign=middle;fillColor=#008a00;strokeColor=#005700;fontColor=#ffffff;" parent="1" vertex="1">
          <mxGeometry x="320" y="560" width="960" height="20" as="geometry" />
        </mxCell>
        <mxCell id="_YsvBeuveRF8L4bBLbOp-18" style="edgeStyle=orthogonalEdgeStyle;rounded=0;orthogonalLoop=1;jettySize=auto;html=1;" parent="1" source="_YsvBeuveRF8L4bBLbOp-6" target="_YsvBeuveRF8L4bBLbOp-11" edge="1">
          <mxGeometry relative="1" as="geometry" />
        </mxCell>
        <mxCell id="_YsvBeuveRF8L4bBLbOp-6" value="GitLab-Runner&lt;br&gt;(Docker Executor)" style="rounded=0;whiteSpace=wrap;html=1;align=center;verticalAlign=top;fillColor=#fff2cc;strokeColor=#d6b656;" parent="1" vertex="1">
          <mxGeometry x="940" y="470" width="120" height="40" as="geometry" />
        </mxCell>
        <mxCell id="_YsvBeuveRF8L4bBLbOp-8" value="docker" style="rounded=0;whiteSpace=wrap;html=1;align=left;verticalAlign=middle;fillColor=#dae8fc;strokeColor=#6c8ebf;" parent="1" vertex="1">
          <mxGeometry x="360" y="430" width="880" height="20" as="geometry" />
        </mxCell>
        <mxCell id="_YsvBeuveRF8L4bBLbOp-9" value="docker-compose" style="rounded=0;whiteSpace=wrap;html=1;align=left;verticalAlign=middle;fillColor=#dae8fc;strokeColor=#6c8ebf;" parent="1" vertex="1">
          <mxGeometry x="360" y="400" width="520" height="20" as="geometry" />
        </mxCell>
        <mxCell id="_YsvBeuveRF8L4bBLbOp-10" value="docker-compose" style="rounded=0;whiteSpace=wrap;html=1;align=left;verticalAlign=middle;fillColor=#dae8fc;strokeColor=#6c8ebf;gradientColor=#7ea6e0;" parent="1" vertex="1">
          <mxGeometry x="1120" y="400" width="120" height="20" as="geometry" />
        </mxCell>
        <mxCell id="_YsvBeuveRF8L4bBLbOp-11" value="DooDコンテナ&lt;br&gt;・コンテナビルド&lt;br&gt;・コンテナプッシュ&lt;br&gt;・コンテナ起動" style="rounded=0;whiteSpace=wrap;html=1;align=left;verticalAlign=top;fillColor=#b1ddf0;strokeColor=#10739e;" parent="1" vertex="1">
          <mxGeometry x="940" y="280" width="120" height="80" as="geometry" />
        </mxCell>
        <mxCell id="_YsvBeuveRF8L4bBLbOp-12" value="APコンテナ" style="rounded=0;whiteSpace=wrap;html=1;align=left;verticalAlign=top;fillColor=#dae8fc;strokeColor=#6c8ebf;gradientColor=#7ea6e0;" parent="1" vertex="1">
          <mxGeometry x="1120" y="280" width="120" height="80" as="geometry" />
        </mxCell>
      </root>
    </mxGraphModel>
  </diagram>
</mxfile>
